<?xml version="1.0" encoding="UTF-8"?><svg id="_イヤー_2" xmlns="http://www.w3.org/2000/svg" viewBox="0 0 13 17.33"><g id="_イヤー_1-2"><path d="M6.56,9.18c.3,0,.52,.09,.69,.27,.33,.37,.33,1.11,0,1.49-.17,.19-.4,.29-.71,.29h-.91v-2.05h.94ZM12.76,3.55L9.45,.24c-.15-.15-.36-.24-.58-.24h-.2V4.33h4.33v-.21c0-.21-.08-.42-.24-.57Zm-5.18,1.05V0H.81C.36,0,0,.36,0,.81v15.71c0,.45,.36,.81,.81,.81H12.19c.45,0,.81-.36,.81-.81V5.42h-4.6c-.45,0-.81-.37-.81-.81Zm1.79,5.59c0,3.06-3.01,2.63-3.76,2.63v1.94c0,.22-.18,.41-.41,.41h-1.04c-.22,0-.41-.18-.41-.41V8c0-.22,.18-.41,.41-.41h2.74c1.51,0,2.47,1.11,2.47,2.61Z" style="fill:#c35729;"/></g></svg>