<?xml version="1.0" encoding="UTF-8"?><svg id="_レイヤー_2" xmlns="http://www.w3.org/2000/svg" viewBox="0 0 12.75 17"><g id="_レイヤー_1-2"><path d="M7.44,4.52V0H.8C.36,0,0,.36,0,.8v15.41c0,.44,.36,.8,.8,.8H11.95c.44,0,.8-.36,.8-.8V5.31h-4.52c-.44,0-.8-.36-.8-.8Zm1.9,3.98h.79c.26,0,.44,.24,.39,.49l-1.26,5.58c-.04,.18-.2,.31-.39,.31h-1.26c-.18,0-.34-.13-.39-.3-.86-3.44-.69-2.7-.85-3.67h-.02c-.04,.47-.08,.58-.85,3.67-.04,.18-.2,.3-.39,.3h-1.23c-.19,0-.35-.13-.39-.31l-1.26-5.58c-.06-.25,.13-.48,.39-.48h.81c.19,0,.36,.13,.39,.32,.52,2.59,.67,3.64,.7,4.06,.05-.34,.24-1.09,.98-4.07,.04-.18,.2-.3,.39-.3h.97c.19,0,.35,.13,.39,.31,.8,3.33,.96,4.12,.98,4.3,0-.37-.09-.59,.72-4.29,.03-.19,.2-.32,.38-.32Zm3.42-4.45v.2h-4.25V0h.2c.21,0,.42,.08,.56,.23l3.25,3.25c.15,.15,.23,.35,.23,.56Z" style="fill:#2a5492;"/></g></svg>