<?xml version="1.0" encoding="UTF-8"?><svg id="_レイヤー_2" xmlns="http://www.w3.org/2000/svg" viewBox="0 0 12.75 17"><g id="_レイヤー_1-2"><path d="M6.04,8.5c-.17-.53-.16-1.56-.07-1.56,.28,0,.25,1.23,.07,1.56Zm-.06,1.57c-.26,.67-.57,1.44-.94,2.08,.61-.23,1.29-.57,2.09-.73-.42-.32-.83-.78-1.15-1.35h0Zm-3.12,4.14s.44-.18,1.16-1.33c-.22,.21-.97,.81-1.16,1.33ZM8.23,5.31h4.52v10.89c0,.44-.36,.8-.8,.8H.8c-.44,0-.8-.36-.8-.8V.8C0,.36,.36,0,.8,0H7.44V4.52c0,.44,.36,.8,.8,.8Zm-.27,5.7c-.66-.41-1.11-.96-1.42-1.79,.15-.61,.39-1.55,.21-2.13-.16-.98-1.41-.88-1.59-.23-.17,.61-.01,1.46,.27,2.56-.39,.92-.95,2.14-1.35,2.85,0,0,0,0,0,0-.9,.46-2.44,1.48-1.81,2.26,.19,.23,.53,.33,.71,.33,.59,0,1.19-.6,2.03-2.05,.86-.28,1.8-.63,2.62-.77,.72,.39,1.56,.65,2.12,.65,.97,0,1.04-1.06,.65-1.44-.46-.45-1.8-.32-2.44-.24ZM12.52,3.49L9.26,.23c-.15-.15-.35-.23-.56-.23h-.2V4.25h4.25v-.2c0-.21-.08-.41-.23-.56Zm-2.46,8.48c.14-.09-.08-.4-1.42-.3,1.23,.52,1.42,.3,1.42,.3Z" style="fill:#d41a1a;"/></g></svg>