<?xml version="1.0" encoding="UTF-8"?><svg id="_イヤー_2" xmlns="http://www.w3.org/2000/svg" viewBox="0 0 12.75 17"><g id="_イヤー_1-2"><path d="M7.44,4.52V0H.8C.36,0,0,.36,0,.8v15.41c0,.44,.36,.8,.8,.8H11.95c.44,0,.8-.36,.8-.8V5.31h-4.52c-.44,0-.8-.36-.8-.8Zm2,3.54l-2,3.1,2,3.1c.17,.27-.02,.61-.34,.61h-1.16c-.15,0-.28-.08-.35-.21-.65-1.2-1.21-2.28-1.21-2.28-.21,.49-.33,.66-1.22,2.28-.07,.13-.2,.21-.35,.21h-1.16c-.32,0-.5-.35-.34-.61l2-3.1-2-3.1c-.17-.27,.02-.61,.34-.61h1.16c.15,0,.28,.08,.35,.21,.87,1.62,.66,1.12,1.22,2.27,0,0,.2-.39,1.22-2.27,.07-.13,.21-.21,.35-.21h1.16c.32,0,.5,.35,.34,.61h0Zm3.32-4v.2h-4.25V0h.2c.21,0,.42,.08,.56,.23l3.25,3.25c.15,.15,.23,.35,.23,.56Z" style="fill:#1f6e43;"/></g></svg>