<?xml version="1.0" encoding="UTF-8"?>
<svg id="_レイヤー_2" xmlns="http://www.w3.org/2000/svg" version="1.1" viewBox="0 0 300 39">
  <!-- Generator: Adobe Illustrator 29.3.1, SVG Export Plug-In . SVG Version: 2.1.0 Build 151)  -->
  <defs>
    <style>
      .st0 {
        fill: #fff;
      }
    </style>
  </defs>
  <g id="_レイヤー_1-2">
    <g>
      <g>
        <path class="st0" d="M30,30.1c.5-.8.8-1.5.8-2.2s-.1-.9-.4-1.3c-1-1.7-2.9-1.8-5.4-.3-.7.4-1.6,1-2.8,1.9-1.1.9-2,1.5-2.7,1.9-3.7,2.1-6.3,1.9-7.8-.6-.3-.5-.4-1-.4-1.7s0-.6,0-1c.2-1.1.6-2,1.2-2.9,0,0,.4-.5.5-.7-.3,0-.8,0-.8,0-3.7-.2-6.4-1.8-8.3-5-.9-1.6-1.3-3.1-1.3-4.7s.2-2,.5-3.1c.9-2.7,2.7-4.9,5.4-6.4,2.1-1.2,4.1-1.9,6-1.9h.4c0-.1.4-1.9.4-2.1H0v39h17.4c0-.2.7-4.4.7-4.4h.1c3,.6,5.7.1,8.1-1.2,1.7-1,3-2.1,3.8-3.2h0Z"/>
        <path class="st0" d="M17.8,33.6h0s-.3,0-.5,0c0,.2-.7,4.6-.7,4.6H.9V.9h13.6v.2s0,.1,0,.1h0c-1.9.1-3.9.8-6,2-2.9,1.7-4.9,4-5.8,6.9-.4,1.1-.6,2.2-.6,3.3,0,1.8.5,3.5,1.5,5.2,1.8,3.2,4.5,5,8.1,5.4h.1s0,.1,0,.1c-.4.7-.7,1.6-.9,2.5,0,.4-.1.8-.1,1.1,0,.8.2,1.5.5,2.1.9,1.5,2.1,2.4,3.6,2.5,1.5.1,3.3-.4,5.3-1.6.6-.4,1.6-1,2.8-1.9,1.2-.9,2.1-1.5,2.7-1.9,3.2-1.8,4-.5,4.2,0,.4.7.3,1.5-.4,2.5-.7,1-1.9,2-3.5,3-2.4,1.4-5,1.7-8,1h0Z"/>
        <path class="st0" d="M20.6,0c0,.1-1.2,2.7-1.2,2.8.1,0,.4.2.4.2,1.7.8,3.1,2.2,4.1,4.1,1,1.8,1.6,3.6,1.6,5.4s-.1,1.6-.3,2.4c-.7,2.5-2.3,4.5-4.8,6-.4.2-1,.5-1.7.9l-1,.4h0c-.1,0-.3.2-1.1,1.3-.2.2-.7.9-.7,1.6s0,.4.1.5c.2.3.5.5.8.6.5.1,1.1,0,1.9-.5.5-.3,1.2-.9,2.3-1.8.9-.9,1.8-1.5,2.6-2,3-1.7,5.5-2.3,7.6-1.8,1.6.4,3,1.6,4.1,3.5.7,1.2,1,2.4,1,3.6s-.3,2.5-1,3.8c-1.4,2.6-3.6,4.8-6.7,6.6,0,0-1.9,1-2.4,1.3h12.9V0h-18.4Z"/>
        <path class="st0" d="M38,38h-8.1c2.8-1.8,4.9-4,6.2-6.5.7-1.4,1.1-2.8,1.1-4.2s-.4-2.8-1.2-4.1c-1.2-2.1-2.8-3.5-4.7-4-2.3-.6-5.1,0-8.3,1.9-.8.5-1.8,1.2-2.8,2.1-.9.9-1.6,1.4-2.1,1.7-.7.4-1.1.4-1.2.4,0,0-.1,0-.2-.2,0,0,0,0,0,0,0-.1,0-.4.5-1,.5-.7.7-1,.8-1,.1,0,.9-.4.9-.4.8-.4,1.3-.6,1.8-.9,2.7-1.6,4.5-3.8,5.3-6.5.2-.9.4-1.8.4-2.7,0-1.9-.6-3.9-1.7-5.9-1.1-1.9-2.5-3.3-4.1-4.2.2-.5.5-1,.6-1.4h16.7v37h0Z"/>
        <path class="st0" d="M11.3,7.8c-1.4.8-2.3,2-2.7,3.3-.1.5-.2.9-.2,1.4,0,.9.3,1.9.8,2.8.9,1.5,2,2.5,3.4,3,1.4.4,2.9.2,4.4-.6,1.5-.8,2.4-2,2.6-3.4.3-1.4,0-2.9-1-4.4-.8-1.3-1.9-2.2-3.2-2.6-1.4-.4-2.8-.2-4.1.6h0Z"/>
        <path class="st0" d="M17.9,10.3c.8,1.4,1.1,2.6.9,3.8-.2,1.1-.9,2-2.2,2.7-1.2.7-2.4.9-3.6.5-1.2-.4-2.1-1.2-2.9-2.5-.5-.8-.7-1.6-.7-2.3s0-.7.2-1.1c.3-1.2,1.1-2.1,2.3-2.8,1.1-.7,2.2-.8,3.4-.4,1.1.4,2,1.1,2.7,2.2h0Z"/>
      </g>
      <g>
        <polygon class="st0" points="131.6 4.8 131.6 .3 111.6 .3 111.6 37 131.6 37 131.6 32.6 116.1 32.6 116.1 17 131.6 17 131.6 12.6 116.1 12.6 116.1 4.8 131.6 4.8 131.6 4.8"/>
        <polygon class="st0" points="155 4.8 155 .3 135 .3 135 37 155 37 155 32.6 139.4 32.6 139.4 17 155 17 155 12.6 139.4 12.6 139.4 4.8 155 4.8 155 4.8"/>
        <polygon class="st0" points="243.2 4.8 243.2 .3 223.1 .3 223.1 37 243.2 37 243.2 32.6 227.6 32.6 227.6 17 243.2 17 243.2 12.6 227.6 12.6 227.6 4.8 243.2 4.8 243.2 4.8"/>
        <polygon class="st0" points="266.5 4.8 266.5 .3 246.5 .3 246.5 37 266.5 37 266.5 32.6 250.9 32.6 250.9 17 266.5 17 266.5 12.6 250.9 12.6 250.9 4.8 266.5 4.8 266.5 4.8"/>
        <path class="st0" d="M67.6,4.8h11.8V.3h-11.8c-10.1,0-18.3,8.2-18.3,18.4s8.2,18.4,18.3,18.4h11.8V12.6h-9.3v4.5h4.9v15.6h-7.3c-7.7,0-13.9-6.2-13.9-13.9s6.2-13.9,13.9-13.9h0Z"/>
        <path class="st0" d="M281.6.3h-11.8v36.7h11.8c10.1,0,18.4-8.2,18.4-18.4S291.8.3,281.6.3h0ZM281.6,32.6h-7.3V4.8h7.3c7.7,0,13.9,6.2,13.9,13.9s-6.2,13.9-13.9,13.9h0Z"/>
        <path class="st0" d="M207.8,12.6h-.9c-4.1,0-6.6-.7-6.6-3.9s1.8-3.9,3.9-3.9h13.4V.3h-13.4c-4.6,0-8.3,3.7-8.3,8.3s2.9,8.3,9.7,8.3h2.6c4.7,0,8.2,3.2,8.2,7.8s-3.5,7.8-7.8,7.8h-11.7v4.5h11.7c6.8,0,12.2-5.5,12.2-12.2s-2.2-12.2-13.1-12.2h0Z"/>
        <path class="st0" d="M108.3,12.6c0-6.7-5.5-12.2-12.2-12.2h-13.3v36.7h4.4V4.8h8.9c4.3,0,7.8,3.5,7.8,7.8s-3.5,7.8-7.8,7.8h-7.6l14,16.7h5.8l-10.4-12.4c5.9-.9,10.4-6,10.4-12.1h0Z"/>
        <polygon class="st0" points="180.2 .3 180.2 29.3 163.4 .3 158.3 .3 158.3 37 162.8 37 162.8 8.1 179.5 37 184.6 37 184.6 .3 180.2 .3 180.2 .3"/>
      </g>
    </g>
  </g>
</svg>