<?xml version="1.0" encoding="UTF-8"?>
<svg id="_レイヤー_2" data-name="レイヤー 2" xmlns="http://www.w3.org/2000/svg" width="300" height="38.98" viewBox="0 0 300 38.98">
  <defs>
    <style>
      .cls-1 {
        fill: #94d1ca;
      }

      .cls-1, .cls-2, .cls-3 {
        stroke-width: 0px;
      }

      .cls-2 {
        fill: #4d4d4d;
      }

      .cls-3 {
        fill: #009c70;
      }
    </style>
  </defs>
  <g id="_レイヤー_1-2" data-name="レイヤー 1">
    <g>
      <g>
        <path class="cls-3" d="M30.01,30.08c.54-.76.81-1.49.81-2.16,0-.44-.12-.87-.35-1.28-.98-1.69-2.85-1.79-5.43-.3-.67.39-1.58,1.02-2.78,1.93-1.15.87-2.05,1.5-2.68,1.87-3.72,2.15-6.26,1.94-7.76-.65-.28-.49-.42-1.05-.42-1.69,0-.3.03-.62.09-.96.2-1.09.61-2.05,1.24-2.86,0,0,.36-.48.51-.67-.29-.01-.84-.04-.84-.04-3.72-.18-6.42-1.83-8.27-5.04-.9-1.56-1.34-3.12-1.34-4.72,0-1,.17-2.02.52-3.07.9-2.7,2.72-4.87,5.43-6.43,2.12-1.22,4.14-1.86,6.02-1.9,0,0,.26,0,.36,0,.02-.13.36-1.91.4-2.1H0v38.98h17.35c.03-.15.7-4.43.7-4.43l.1.02c2.95.54,5.67.12,8.06-1.27,1.7-.98,2.98-2.07,3.8-3.22Z"/>
        <path class="cls-1" d="M17.78,33.59h0s-.33-.07-.47-.1c-.03.19-.73,4.6-.73,4.6H.89V.89h13.55l-.04.23-.02.13h-.07c-1.91.13-3.93.79-6.01,2-2.9,1.67-4.86,4-5.82,6.91-.37,1.12-.56,2.24-.56,3.33,0,1.77.49,3.51,1.46,5.18,1.83,3.17,4.54,4.99,8.08,5.41l.14.02-.07.12c-.43.74-.73,1.57-.89,2.46-.07.39-.1.76-.1,1.11,0,.8.18,1.52.54,2.14.88,1.54,2.11,2.39,3.65,2.54,1.48.14,3.27-.38,5.32-1.56.65-.38,1.58-1.02,2.77-1.93,1.16-.89,2.07-1.52,2.68-1.87,3.17-1.83,3.96-.47,4.22-.02.41.7.27,1.52-.42,2.48-.74,1.05-1.93,2.05-3.52,2.97-2.36,1.36-5.04,1.71-7.98,1.05Z"/>
        <path class="cls-3" d="M20.61,0c-.05.11-1.18,2.66-1.25,2.82.13.07.38.19.38.19,1.68.84,3.08,2.2,4.15,4.06,1.04,1.81,1.58,3.62,1.58,5.39,0,.81-.12,1.62-.33,2.41-.71,2.52-2.33,4.52-4.81,5.95-.39.23-.95.51-1.67.85l-1.01.43h-.03c-.13.09-.31.25-1.1,1.34-.18.25-.66.91-.66,1.56,0,.2.05.39.14.55.18.32.46.54.79.63.51.14,1.14-.02,1.92-.47.51-.3,1.25-.88,2.26-1.8.94-.86,1.81-1.52,2.58-1.97,2.98-1.72,5.52-2.31,7.57-1.76,1.63.43,3,1.61,4.09,3.5.69,1.19,1.03,2.39,1.03,3.62s-.34,2.46-1.01,3.75c-1.37,2.62-3.62,4.85-6.68,6.62,0,0-1.92,1.04-2.43,1.32.7,0,12.67,0,12.85,0V0h-18.36Z"/>
        <path class="cls-1" d="M37.99,37.99h-8.12c2.8-1.78,4.9-3.96,6.23-6.5.74-1.42,1.11-2.83,1.11-4.21s-.39-2.77-1.15-4.11c-1.23-2.12-2.8-3.46-4.69-3.96-2.31-.62-5.11,0-8.32,1.86-.82.48-1.75,1.18-2.75,2.09-.94.86-1.64,1.42-2.08,1.68-.73.42-1.07.4-1.18.37-.06-.01-.13-.04-.19-.16,0-.01-.01-.03-.01-.06,0-.12.08-.44.48-.98.53-.74.73-.98.8-1.05.13-.06.93-.4.93-.4.75-.35,1.33-.64,1.76-.89,2.71-1.57,4.48-3.77,5.26-6.54.25-.88.37-1.78.37-2.68,0-1.93-.57-3.9-1.71-5.87-1.07-1.86-2.46-3.27-4.11-4.2.2-.46.46-1.04.62-1.39h16.74v37.01Z"/>
        <path class="cls-3" d="M11.34,7.77c-1.42.82-2.33,1.95-2.72,3.35-.13.46-.19.91-.19,1.37,0,.95.27,1.89.81,2.83.88,1.53,2.04,2.52,3.45,2.96,1.42.44,2.89.23,4.36-.62,1.47-.84,2.36-1.98,2.63-3.38.26-1.37-.06-2.86-.96-4.43-.76-1.32-1.85-2.2-3.23-2.62-1.39-.42-2.79-.24-4.15.55Z"/>
        <path class="cls-1" d="M17.86,10.34c.78,1.35,1.06,2.62.85,3.75-.22,1.12-.92,2.01-2.16,2.72-1.24.72-2.41.89-3.58.53-1.18-.37-2.13-1.19-2.89-2.51-.46-.78-.68-1.55-.68-2.33,0-.37.05-.74.16-1.12.32-1.16,1.06-2.06,2.26-2.76,1.13-.65,2.24-.8,3.37-.45,1.15.35,2.02,1.06,2.66,2.17Z"/>
      </g>
      <g>
        <polygon class="cls-2" points="131.63 4.79 131.63 .34 111.6 .34 111.6 37.04 131.63 37.04 131.63 32.59 116.06 32.59 116.06 17.02 131.63 17.02 131.63 12.57 116.06 12.57 116.06 4.79 131.63 4.79 131.63 4.79"/>
        <polygon class="cls-2" points="154.97 4.79 154.97 .34 134.96 .34 134.96 37.04 154.97 37.04 154.97 32.59 139.41 32.59 139.41 17.02 154.97 17.02 154.97 12.57 139.41 12.57 139.41 4.79 154.97 4.79 154.97 4.79"/>
        <polygon class="cls-2" points="243.17 4.79 243.17 .34 223.15 .34 223.15 37.04 243.17 37.04 243.17 32.59 227.6 32.59 227.6 17.02 243.17 17.02 243.17 12.57 227.6 12.57 227.6 4.79 243.17 4.79 243.17 4.79"/>
        <polygon class="cls-2" points="266.52 4.79 266.52 .34 246.51 .34 246.51 37.04 266.52 37.04 266.52 32.59 250.95 32.59 250.95 17.02 266.52 17.02 266.52 12.57 250.95 12.57 250.95 4.79 266.52 4.79 266.52 4.79"/>
        <path class="cls-2" d="M67.57,4.79h11.79V.34h-11.79c-10.12,0-18.35,8.23-18.35,18.35s8.23,18.35,18.35,18.35h11.79V12.57h-9.35v4.45h4.89v15.57h-7.34c-7.67,0-13.9-6.24-13.9-13.9s6.23-13.9,13.9-13.9h0Z"/>
        <path class="cls-2" d="M281.65.34h-11.79v36.7h11.79c10.11,0,18.35-8.23,18.35-18.35S291.76.34,281.65.34h0ZM281.65,32.59h-7.34V4.79h7.34c7.66,0,13.9,6.22,13.9,13.9s-6.24,13.9-13.9,13.9h0Z"/>
        <path class="cls-2" d="M207.81,12.57h-.89c-4.07,0-6.57-.68-6.57-3.89,0-2.15,1.75-3.9,3.9-3.9h13.35V.34h-13.35c-4.6,0-8.34,3.74-8.34,8.34s2.87,8.33,9.73,8.33h2.61c4.7,0,8.24,3.17,8.24,7.79,0,4.3-3.49,7.79-7.79,7.79h-11.68v4.45h11.68c6.75,0,12.23-5.49,12.23-12.24,0-3.48-2.19-12.23-13.12-12.23h0Z"/>
        <path class="cls-2" d="M108.27,12.57c0-6.74-5.49-12.23-12.24-12.23h-13.35v36.7h4.45V4.79h8.9c4.29,0,7.78,3.49,7.78,7.78s-3.49,7.79-7.78,7.79h-7.57l14,16.68h5.81l-10.39-12.38c5.87-.89,10.39-5.98,10.39-12.09h0Z"/>
        <polygon class="cls-2" points="180.19 .34 180.19 29.34 163.45 .34 158.31 .34 158.31 37.04 162.76 37.04 162.76 8.05 179.5 37.04 184.63 37.04 184.63 .34 180.19 .34 180.19 .34"/>
      </g>
    </g>
  </g>
</svg>