<?xml version="1.0" encoding="UTF-8"?>
<svg id="_レイヤー_1" data-name="レイヤー_1" xmlns="http://www.w3.org/2000/svg" version="1.1" viewBox="0 0 720 720">
  <!-- Generator: Adobe Illustrator 29.5.1, SVG Export Plug-In . SVG Version: 2.1.0 Build 141)  -->
  <defs>
    <style>
      .st0 {
        fill: #d6d6d6;
      }

      .st1 {
        fill: #a6a6a6;
      }

      .st2 {
        fill: #fff;
      }

      .st3 {
        fill: #9e9e9e;
      }

      .st4 {
        fill: #e8e8e8;
      }
    </style>
  </defs>
  <rect class="st4" width="720" height="720"/>
  <g>
    <g>
      <path class="st3" d="M239.5,370.6c.5-.8.8-1.5.8-2.2s-.1-.9-.4-1.3c-1-1.7-2.9-1.8-5.4-.3-.7.4-1.6,1-2.8,1.9-1.1.9-2,1.5-2.7,1.9-3.7,2.1-6.3,1.9-7.8-.7-.3-.5-.4-1-.4-1.7s0-.6,0-1c.2-1.1.6-2,1.2-2.9,0,0,.4-.5.5-.7-.3,0-.8,0-.8,0-3.7-.2-6.4-1.8-8.3-5-.9-1.6-1.3-3.1-1.3-4.7s.2-2,.5-3.1c.9-2.7,2.7-4.9,5.4-6.4,2.1-1.2,4.1-1.9,6-1.9,0,0,.3,0,.4,0,0-.1.4-1.9.4-2.1h-15.5v39h17.4c0-.2.7-4.4.7-4.4h0c3,.6,5.7.1,8.1-1.2,1.7-1,3-2.1,3.8-3.2Z"/>
      <path class="st0" d="M227.3,374.1h0s-.3,0-.5-.1c0,.2-.7,4.6-.7,4.6h-15.7v-37.2h13.5v.2s0,.1,0,.1h0c-1.9.1-3.9.8-6,2-2.9,1.7-4.9,4-5.8,6.9-.4,1.1-.6,2.2-.6,3.3,0,1.8.5,3.5,1.5,5.2,1.8,3.2,4.5,5,8.1,5.4h.1s0,.1,0,.1c-.4.7-.7,1.6-.9,2.5,0,.4-.1.8-.1,1.1,0,.8.2,1.5.5,2.1.9,1.5,2.1,2.4,3.7,2.5,1.5.1,3.3-.4,5.3-1.6.6-.4,1.6-1,2.8-1.9,1.2-.9,2.1-1.5,2.7-1.9,3.2-1.8,4-.5,4.2,0,.4.7.3,1.5-.4,2.5-.7,1.1-1.9,2.1-3.5,3-2.4,1.4-5,1.7-8,1.1Z"/>
      <path class="st3" d="M230.1,340.5c0,.1-1.2,2.7-1.2,2.8.1,0,.4.2.4.2,1.7.8,3.1,2.2,4.2,4.1,1,1.8,1.6,3.6,1.6,5.4s-.1,1.6-.3,2.4c-.7,2.5-2.3,4.5-4.8,6-.4.2-1,.5-1.7.8l-1,.4h0c-.1,0-.3.2-1.1,1.3-.2.2-.7.9-.7,1.6s0,.4.1.5c.2.3.5.5.8.6.5.1,1.1,0,1.9-.5.5-.3,1.2-.9,2.3-1.8.9-.9,1.8-1.5,2.6-2,3-1.7,5.5-2.3,7.6-1.8,1.6.4,3,1.6,4.1,3.5.7,1.2,1,2.4,1,3.6s-.3,2.5-1,3.7c-1.4,2.6-3.6,4.8-6.7,6.6,0,0-1.9,1-2.4,1.3.7,0,12.7,0,12.9,0v-39h-18.4Z"/>
      <path class="st0" d="M247.5,378.5h-8.1c2.8-1.8,4.9-4,6.2-6.5.7-1.4,1.1-2.8,1.1-4.2s-.4-2.8-1.2-4.1c-1.2-2.1-2.8-3.5-4.7-4-2.3-.6-5.1,0-8.3,1.9-.8.5-1.8,1.2-2.8,2.1-.9.9-1.6,1.4-2.1,1.7-.7.4-1.1.4-1.2.4,0,0-.1,0-.2-.2,0,0,0,0,0,0,0-.1,0-.4.5-1,.5-.7.7-1,.8-1.1.1,0,.9-.4.9-.4.7-.3,1.3-.6,1.8-.9,2.7-1.6,4.5-3.8,5.3-6.5.2-.9.4-1.8.4-2.7,0-1.9-.6-3.9-1.7-5.9-1.1-1.9-2.5-3.3-4.1-4.2.2-.5.5-1,.6-1.4h16.7v37Z"/>
      <path class="st3" d="M220.8,348.3c-1.4.8-2.3,1.9-2.7,3.3-.1.5-.2.9-.2,1.4,0,.9.3,1.9.8,2.8.9,1.5,2,2.5,3.4,3,1.4.4,2.9.2,4.4-.6,1.5-.8,2.4-2,2.6-3.4.3-1.4,0-2.9-1-4.4-.8-1.3-1.8-2.2-3.2-2.6-1.4-.4-2.8-.2-4.1.5Z"/>
      <polygon class="st2" points="227.4 350.8 227.4 350.8 227.4 350.8 227.4 350.8"/>
      <path class="st0" d="M227.4,350.8c.8,1.4,1.1,2.6.8,3.8-.2,1.1-.9,2-2.2,2.7-1.2.7-2.4.9-3.6.5-1.2-.4-2.1-1.2-2.9-2.5-.5-.8-.7-1.6-.7-2.3s0-.7.2-1.1c.3-1.2,1.1-2.1,2.3-2.8,1.1-.7,2.2-.8,3.4-.5,1.2.4,2,1.1,2.7,2.2Z"/>
    </g>
    <g>
      <polygon class="st1" points="341.1 345.3 341.1 340.9 321.1 340.9 321.1 377.6 341.1 377.6 341.1 373.1 325.6 373.1 325.6 357.5 341.1 357.5 341.1 353.1 325.6 353.1 325.6 345.3 341.1 345.3 341.1 345.3"/>
      <polygon class="st1" points="364.5 345.3 364.5 340.9 344.5 340.9 344.5 377.6 364.5 377.6 364.5 373.1 348.9 373.1 348.9 357.5 364.5 357.5 364.5 353.1 348.9 353.1 348.9 345.3 364.5 345.3 364.5 345.3"/>
      <polygon class="st1" points="452.7 345.3 452.7 340.9 432.6 340.9 432.6 377.6 452.7 377.6 452.7 373.1 437.1 373.1 437.1 357.5 452.7 357.5 452.7 353.1 437.1 353.1 437.1 345.3 452.7 345.3 452.7 345.3"/>
      <polygon class="st1" points="476 345.3 476 340.9 456 340.9 456 377.6 476 377.6 476 373.1 460.5 373.1 460.5 357.5 476 357.5 476 353.1 460.5 353.1 460.5 345.3 476 345.3 476 345.3"/>
      <path class="st1" d="M277.1,345.3h11.8v-4.4h-11.8c-10.1,0-18.4,8.2-18.4,18.3s8.2,18.4,18.4,18.4h11.8v-24.5h-9.3v4.4h4.9v15.6h-7.3c-7.7,0-13.9-6.2-13.9-13.9s6.2-13.9,13.9-13.9h0Z"/>
      <path class="st1" d="M491.1,340.9h-11.8v36.7h11.8c10.1,0,18.4-8.2,18.4-18.4s-8.2-18.3-18.4-18.3h0ZM491.1,373.1h-7.3v-27.8h7.3c7.7,0,13.9,6.2,13.9,13.9s-6.2,13.9-13.9,13.9h0Z"/>
      <path class="st1" d="M417.3,353.1h-.9c-4.1,0-6.6-.7-6.6-3.9s1.7-3.9,3.9-3.9h13.3v-4.4h-13.3c-4.6,0-8.3,3.7-8.3,8.3s2.9,8.3,9.7,8.3h2.6c4.7,0,8.2,3.2,8.2,7.8s-3.5,7.8-7.8,7.8h-11.7v4.4h11.7c6.7,0,12.2-5.5,12.2-12.2s-2.2-12.2-13.1-12.2h0Z"/>
      <path class="st1" d="M317.8,353.1c0-6.7-5.5-12.2-12.2-12.2h-13.3v36.7h4.4v-32.3h8.9c4.3,0,7.8,3.5,7.8,7.8s-3.5,7.8-7.8,7.8h-7.6l14,16.7h5.8l-10.4-12.4c5.9-.9,10.4-6,10.4-12.1h0Z"/>
      <polygon class="st1" points="389.7 340.9 389.7 369.8 372.9 340.9 367.8 340.9 367.8 377.6 372.3 377.6 372.3 348.6 389 377.6 394.1 377.6 394.1 340.9 389.7 340.9 389.7 340.9"/>
    </g>
  </g>
</svg>